<?xml version="1.0" encoding="UTF-8"?>
<svg id="Layer_1" data-name="Layer 1" xmlns="http://www.w3.org/2000/svg" viewBox="0 0 247.14 87.4">
  <defs>
    <style>
      .cls-1 {
        fill: #0a9ad7;
      }

      .cls-2 {
        fill: #ffc012;
      }
    </style>
  </defs>
  <path class="cls-1" d="M117.95,43.7c-43.29.83-82.83,15.4-115.29,39.54.42,1.25.83,2.91,1.25,4.16,36.21-17.48,76.58-27.05,119.04-27.05s83.24,9.57,119.04,27.05c.42-1.25.83-2.91,1.25-4.16-32.46-23.72-72-38.29-115.29-39.54h-9.99Z"/>
  <path class="cls-2" d="M3.91,0c-.42,1.25-.83,2.91-1.25,4.16,31.63,23.31,70.34,37.87,112.38,39.54h17.06c42.04-1.66,80.74-16.23,112.38-39.54-.42-1.25-.83-2.91-1.25-4.16-36.63,17.06-77,27.05-119.87,27.05S40.12,17.06,3.91,0"/>
</svg>